<svg width="472" height="390" viewBox="0 0 472 390" fill="none" xmlns="http://www.w3.org/2000/svg">
<path d="M57.44 0.525543C55.92 0.405541 54.4 0.405538 52.8 0.565538C49.68 0.965543 46.56 2.20553 43.52 5.08553C33.76 14.3655 31.76 27.8455 31.64 41.8455C31.52 55.8855 33.88 71.2855 36.92 85.8455C42.48 112.206 49.4 131.486 50.88 135.606C45.56 142.446 0.480011 201.526 0.480011 266.486V276.206L10.16 276.726C38.68 278.246 49.84 287.166 55.72 296.846C61.6 306.486 61.92 318.766 61.92 328.246V337.086L70.64 338.366C104.76 343.406 126.2 355.366 149.52 366.966C172.84 378.566 198.24 389.686 236 389.686C273.76 389.686 299.16 378.566 322.48 366.966C345.8 355.366 367.24 343.406 401.32 338.366L410.08 337.086V328.246C410.08 318.766 410.4 306.486 416.28 296.846C422.16 287.166 433.32 278.246 461.84 276.726L471.52 276.206V266.486C471.52 201.526 426.44 142.446 421.12 135.606C422.6 131.486 429.52 112.206 435.08 85.8455C438.12 71.2855 440.48 55.8855 440.36 41.8455C440.24 27.8455 438.24 14.3655 428.48 5.08553C422.4 -0.674467 415.88 0.205539 410.04 1.08553C404.2 1.96554 397.88 3.92554 390.88 6.56554C376.88 11.8055 360.36 19.8455 344.28 28.2455C314.12 44.0055 289.32 59.1655 285.8 61.2455C265.04 52.4856 245.12 51.7655 236 51.7655C226.88 51.7655 206.96 52.4856 186.2 61.2455C182.68 59.1655 157.88 44.0055 127.72 28.2455C111.64 19.8455 95.12 11.8055 81.12 6.56554C74.12 3.92554 67.8 1.96554 61.96 1.08553C60.48 0.845539 59 0.645546 57.44 0.525543ZM57.28 21.3255C57.76 21.2855 57.92 21.1655 58.88 21.3255C62.28 21.8455 67.68 23.4055 73.92 25.7655C86.44 30.4455 102.56 38.2055 118.24 46.4056C149.64 62.8055 179.48 81.0055 179.48 81.0055L184.36 83.9655L189.48 81.3655C207.44 72.1255 225.56 72.2455 236 72.2455C246.44 72.2455 264.56 72.1255 282.52 81.3655L287.64 83.9655L292.52 81.0055C292.52 81.0055 322.36 62.8055 353.76 46.4056C369.44 38.2055 385.56 30.4455 398.08 25.7655C404.32 23.4055 409.72 21.8455 413.12 21.3255C414.08 21.1655 414.24 21.2855 414.72 21.3255C417.2 24.3255 419.8 31.2055 419.88 42.0055C419.96 53.6055 417.92 67.9255 415.04 81.6056C409.28 109.006 400.44 133.806 400.44 133.806L398.56 139.086L401.96 143.526C401.96 143.526 445.84 203.246 449.72 258.966C424.48 262.926 406.96 272.726 398.76 286.166C391.28 298.526 390.28 310.726 390.04 320.366C357.68 326.646 334.16 338.286 313.36 348.646C290.6 359.966 269.92 369.206 236 369.206C202.08 369.206 181.4 359.966 158.64 348.646C137.84 338.286 114.32 326.646 82 320.366C81.72 310.726 80.72 298.566 73.24 286.206C65.04 272.726 47.52 262.926 22.28 258.966C26.16 203.246 70 143.526 70 143.526L73.44 139.086L71.56 133.806C71.56 133.806 62.72 109.006 56.96 81.6056C54.08 67.9255 52.04 53.6055 52.12 42.0055C52.2 31.2055 54.8 24.3255 57.28 21.3255ZM161.68 133.686C122.36 133.686 72.16 163.366 72.16 186.606C72.16 223.286 139.76 287.286 178.52 287.286C194.36 287.286 203.36 280.886 210.6 275.766C217.68 270.766 223.28 266.806 236 266.806C248.72 266.806 254.28 270.766 261.4 275.766C268.64 280.886 277.64 287.286 293.48 287.286C332.24 287.286 399.84 223.286 399.84 186.606C399.84 163.366 349.64 133.686 310.32 133.686C290.96 133.686 278.24 139.846 267.04 145.246C257.2 150.046 248.68 154.166 236 154.166C223.32 154.166 214.8 150.046 204.96 145.246C193.76 139.846 181.04 133.686 161.68 133.686ZM174.56 174.646C191.48 174.646 205.28 188.446 205.28 205.366C205.28 222.286 191.48 236.086 174.56 236.086C157.64 236.086 143.84 222.286 143.84 205.366C143.84 188.446 157.64 174.646 174.56 174.646ZM297.44 174.646C314.36 174.646 328.16 188.446 328.16 205.366C328.16 222.286 314.36 236.086 297.44 236.086C280.52 236.086 266.72 222.286 266.72 205.366C266.72 188.446 280.52 174.646 297.44 174.646ZM174.56 195.126C168.92 195.126 164.32 199.726 164.32 205.366C164.32 211.006 168.92 215.606 174.56 215.606C180.2 215.606 184.8 211.006 184.8 205.366C184.8 199.726 180.2 195.126 174.56 195.126ZM297.44 195.126C291.8 195.126 287.2 199.726 287.2 205.366C287.2 211.006 291.8 215.606 297.44 215.606C303.08 215.606 307.68 211.006 307.68 205.366C307.68 199.726 303.08 195.126 297.44 195.126Z" fill="#1A202C"/>
</svg>
