<svg fill="#000000" xmlns="http://www.w3.org/2000/svg" viewBox="0 0 50 50" width="500px" height="500px"><path d="M 7.5625 5.996094 C 7.414063 5.984375 7.265625 5.984375 7.109375 6 C 6.804688 6.039063 6.5 6.160156 6.203125 6.441406 C 5.25 7.347656 5.054688 8.664063 5.042969 10.03125 C 5.03125 11.402344 5.261719 12.90625 5.558594 14.328125 C 6.101563 16.902344 6.777344 18.785156 6.921875 19.1875 C 6.402344 19.855469 2 25.625 2 31.96875 L 2 32.917969 L 2.945313 32.96875 C 5.730469 33.117188 6.820313 33.988281 7.394531 34.933594 C 7.96875 35.875 8 37.074219 8 38 L 8 38.863281 L 8.851563 38.988281 C 12.183594 39.480469 14.277344 40.648438 16.554688 41.78125 C 18.832031 42.914063 21.3125 44 25 44 C 28.6875 44 31.167969 42.914063 33.445313 41.78125 C 35.722656 40.648438 37.816406 39.480469 41.144531 38.988281 L 42 38.863281 L 42 38 C 42 37.074219 42.03125 35.875 42.605469 34.933594 C 43.179688 33.988281 44.269531 33.117188 47.054688 32.96875 L 48 32.917969 L 48 31.96875 C 48 25.625 43.597656 19.855469 43.078125 19.1875 C 43.222656 18.785156 43.898438 16.902344 44.441406 14.328125 C 44.738281 12.90625 44.96875 11.402344 44.957031 10.03125 C 44.945313 8.664063 44.75 7.347656 43.796875 6.441406 C 43.203125 5.878906 42.566406 5.964844 41.996094 6.050781 C 41.425781 6.136719 40.808594 6.328125 40.125 6.585938 C 38.757813 7.097656 37.144531 7.882813 35.574219 8.703125 C 32.628906 10.242188 30.207031 11.722656 29.863281 11.925781 C 27.835938 11.070313 25.890625 11 25 11 C 24.109375 11 22.164063 11.070313 20.136719 11.925781 C 19.792969 11.722656 17.371094 10.242188 14.425781 8.703125 C 12.855469 7.882813 11.242188 7.097656 9.875 6.585938 C 9.191406 6.328125 8.574219 6.136719 8.003906 6.050781 C 7.859375 6.027344 7.714844 6.007813 7.5625 5.996094 Z M 7.546875 8.027344 C 7.59375 8.023438 7.609375 8.011719 7.703125 8.027344 C 8.035156 8.078125 8.5625 8.230469 9.171875 8.460938 C 10.394531 8.917969 11.96875 9.675781 13.5 10.476563 C 16.566406 12.078125 19.480469 13.855469 19.480469 13.855469 L 19.957031 14.144531 L 20.457031 13.890625 C 22.210938 12.988281 23.980469 13 25 13 C 26.019531 13 27.789063 12.988281 29.542969 13.890625 L 30.042969 14.144531 L 30.519531 13.855469 C 30.519531 13.855469 33.433594 12.078125 36.5 10.476563 C 38.03125 9.675781 39.605469 8.917969 40.828125 8.460938 C 41.4375 8.230469 41.964844 8.078125 42.296875 8.027344 C 42.390625 8.011719 42.40625 8.023438 42.453125 8.027344 C 42.695313 8.320313 42.949219 8.992188 42.957031 10.046875 C 42.964844 11.179688 42.765625 12.578125 42.484375 13.914063 C 41.921875 16.589844 41.058594 19.011719 41.058594 19.011719 L 40.875 19.527344 L 41.207031 19.960938 C 41.207031 19.960938 45.492188 25.792969 45.871094 31.234375 C 43.40625 31.621094 41.695313 32.578125 40.894531 33.890625 C 40.164063 35.097656 40.066406 36.289063 40.042969 37.230469 C 36.882813 37.84375 34.585938 38.980469 32.554688 39.992188 C 30.332031 41.097656 28.3125 42 25 42 C 21.6875 42 19.667969 41.097656 17.445313 39.992188 C 15.414063 38.980469 13.117188 37.84375 9.960938 37.230469 C 9.933594 36.289063 9.835938 35.101563 9.105469 33.894531 C 8.304688 32.578125 6.59375 31.621094 4.128906 31.234375 C 4.507813 25.792969 8.789063 19.960938 8.789063 19.960938 L 9.125 19.527344 L 8.941406 19.011719 C 8.941406 19.011719 8.078125 16.589844 7.515625 13.914063 C 7.234375 12.578125 7.035156 11.179688 7.042969 10.046875 C 7.050781 8.992188 7.304688 8.320313 7.546875 8.027344 Z M 17.742188 19 C 13.902344 19 9 21.898438 9 24.167969 C 9 27.75 15.601563 34 19.386719 34 C 20.933594 34 21.8125 33.375 22.519531 32.875 C 23.210938 32.386719 23.757813 32 25 32 C 26.242188 32 26.785156 32.386719 27.480469 32.875 C 28.1875 33.375 29.066406 34 30.613281 34 C 34.398438 34 41 27.75 41 24.167969 C 41 21.898438 36.097656 19 32.257813 19 C 30.367188 19 29.125 19.601563 28.03125 20.128906 C 27.070313 20.597656 26.238281 21 25 21 C 23.761719 21 22.929688 20.597656 21.96875 20.128906 C 20.875 19.601563 19.632813 19 17.742188 19 Z M 19 23 C 20.652344 23 22 24.347656 22 26 C 22 27.652344 20.652344 29 19 29 C 17.347656 29 16 27.652344 16 26 C 16 24.347656 17.347656 23 19 23 Z M 31 23 C 32.652344 23 34 24.347656 34 26 C 34 27.652344 32.652344 29 31 29 C 29.347656 29 28 27.652344 28 26 C 28 24.347656 29.347656 23 31 23 Z M 19 25 C 18.449219 25 18 25.449219 18 26 C 18 26.550781 18.449219 27 19 27 C 19.550781 27 20 26.550781 20 26 C 20 25.449219 19.550781 25 19 25 Z M 31 25 C 30.449219 25 30 25.449219 30 26 C 30 26.550781 30.449219 27 31 27 C 31.550781 27 32 26.550781 32 26 C 32 25.449219 31.550781 25 31 25 Z"/></svg>